<?xml version="1.0" encoding="UTF-8"?>
<!DOCTYPE svg PUBLIC "-//W3C//DTD SVG 1.1//EN" "http://www.w3.org/Graphics/SVG/1.1/DTD/svg11.dtd">
<svg xmlns="http://www.w3.org/2000/svg" id="id" version="1.1" width="514px" height="454px" style="shape-rendering:geometricPrecision; text-rendering:geometricPrecision; image-rendering:optimizeQuality; fill-rule:evenodd; clip-rule:evenodd" xmlns:xlink="http://www.w3.org/1999/xlink">
<!-- <g><path fill="#f6f6f6" d="M -0.5,-0.5 C 170.833,-0.5 342.167,-0.5 513.5,-0.5C 513.5,150.833 513.5,302.167 513.5,453.5C 342.167,453.5 170.833,453.5 -0.5,453.5C -0.5,302.167 -0.5,150.833 -0.5,-0.5 Z"/></g> -->
<g><path fill="#090705" d="M 238.5,36.5 C 280.592,35.2429 322.258,38.7429 363.5,47C 390.854,52.8479 415.854,63.8479 438.5,80C 461.385,101.23 462.385,123.564 441.5,147C 437.405,149.361 433.238,151.527 429,153.5C 404.677,219.872 375.011,283.538 340,344.5C 329.494,360.848 318.494,376.848 307,392.5C 286.319,414.397 262.486,418.564 235.5,405C 230.077,401.581 225.244,397.415 221,392.5C 192.01,353.54 167.343,311.874 147,267.5C 129.827,229.977 113.827,191.977 99,153.5C 87.4244,149.592 79.4244,141.925 75,130.5C 68.0089,109.624 73.1755,92.4569 90.5,79C 112.551,63.322 136.884,52.6553 163.5,47C 188.399,41.7007 213.399,38.2007 238.5,36.5 Z"/></g>
<g><path fill="#fbbc3f" d="M 94.5,139.5 C 98.1763,139.681 100.176,138.014 100.5,134.5C 97.7849,130.077 95.2849,125.41 93,120.5C 92.0755,114.515 92.5755,108.681 94.5,103C 93.5707,98.2159 90.904,96.7159 86.5,98.5C 90.9804,91.854 96.647,86.354 103.5,82C 135.359,63.9437 169.693,53.4437 206.5,50.5C 211.731,50.5557 216.731,49.889 221.5,48.5C 265.142,44.847 308.475,47.0136 351.5,55C 376.234,59.5768 399.567,67.9101 421.5,80C 429.914,85.0788 437.081,91.5788 443,99.5C 447.849,109.966 447.515,120.3 442,130.5C 438.93,135.183 435.096,139.016 430.5,142C 428.833,142.667 427.167,142.667 425.5,142C 415.322,133.484 403.989,126.817 391.5,122C 320.86,96.9163 248.86,92.5829 175.5,109C 154.017,114.119 133.684,122.119 114.5,133C 110.217,135.615 106.217,138.615 102.5,142C 99.0732,143.166 96.4065,142.332 94.5,139.5 Z"/></g>
<g><path fill="#a07728" d="M 221.5,48.5 C 216.731,49.889 211.731,50.5557 206.5,50.5C 211.269,49.111 216.269,48.4443 221.5,48.5 Z"/></g>
<g><path fill="#faf7f3" d="M 94.5,139.5 C 82.7905,130.279 78.9571,118.279 83,103.5C 84.1889,101.767 85.3556,100.1 86.5,98.5C 90.904,96.7159 93.5707,98.2159 94.5,103C 92.5755,108.681 92.0755,114.515 93,120.5C 95.2849,125.41 97.7849,130.077 100.5,134.5C 100.176,138.014 98.1763,139.681 94.5,139.5 Z"/></g>
<g><path fill="#fdf59b" d="M 401.5,195.5 C 400.85,195.804 400.183,196.137 399.5,196.5C 388.417,188.185 376.75,187.351 364.5,194C 352.449,204.736 350.282,217.236 358,231.5C 363.298,239.567 370.798,243.567 380.5,243.5C 368.673,270.682 355.34,297.016 340.5,322.5C 341.169,317 338.835,314.833 333.5,316C 323.272,331.233 313.438,346.733 304,362.5C 297.206,373.259 288.706,382.426 278.5,390C 274.916,391.073 271.25,391.74 267.5,392C 264.022,394.706 263.689,397.706 266.5,401C 269.146,401.497 271.813,401.664 274.5,401.5C 257.058,405.41 242.225,400.743 230,387.5C 224.336,380.826 219.169,373.826 214.5,366.5C 234.543,365.624 245.21,355.124 246.5,335C 246.136,319.959 238.803,309.959 224.5,305C 207.687,301.316 195.02,306.816 186.5,321.5C 167.037,286.573 149.704,250.573 134.5,213.5C 140.593,217.193 143.759,215.526 144,208.5C 135.415,189.744 127.415,170.744 120,151.5C 117.847,149.556 115.347,149.056 112.5,150C 110.963,151.11 110.297,152.61 110.5,154.5C 109.766,153.122 109.099,151.622 108.5,150C 120.747,140.209 134.414,133.042 149.5,128.5C 153.283,153.768 167.95,164.935 193.5,162C 215.414,153.005 222.914,137.172 216,114.5C 215.329,113.748 214.496,113.414 213.5,113.5C 268.428,105.449 322.428,109.949 375.5,127C 391.607,132.052 406.273,139.719 419.5,150C 413.364,165.107 407.364,180.274 401.5,195.5 Z"/></g>
<g><path fill="#ea7423" d="M 213.5,113.5 C 214.496,113.414 215.329,113.748 216,114.5C 222.914,137.172 215.414,153.005 193.5,162C 167.95,164.935 153.283,153.768 149.5,128.5C 170.136,121.009 191.469,116.009 213.5,113.5 Z"/></g>
<g><path fill="#cadb54" d="M 313.5,127.5 C 320.447,126.878 327.114,127.878 333.5,130.5C 334.583,131.365 334.749,132.365 334,133.5C 323.702,147.825 310.535,151.492 294.5,144.5C 298.691,136.303 305.024,130.636 313.5,127.5 Z"/></g>
<g><path fill="#fbfaf7" d="M 134.5,213.5 C 126.123,194.047 118.123,174.381 110.5,154.5C 110.297,152.61 110.963,151.11 112.5,150C 115.347,149.056 117.847,149.556 120,151.5C 127.415,170.744 135.415,189.744 144,208.5C 143.759,215.526 140.593,217.193 134.5,213.5 Z"/></g>
<g><path fill="#040402" d="M 194.5,170.5 C 204.859,170.014 208.692,174.681 206,184.5C 203.512,186.743 200.846,188.743 198,190.5C 197.667,200.5 197.333,210.5 197,220.5C 194.103,225.155 189.937,226.655 184.5,225C 183.333,223.833 182.167,222.667 181,221.5C 179.58,214.95 179.08,208.284 179.5,201.5C 169.567,203.737 165.067,199.737 166,189.5C 166.785,187.714 167.951,186.214 169.5,185C 177.988,180.246 186.321,175.413 194.5,170.5 Z"/></g>
<g><path fill="#030302" d="M 323.5,170.5 C 327.463,170.089 331.13,170.922 334.5,173C 342.954,177.803 351.121,182.969 359,188.5C 360.643,198.689 356.476,203.022 346.5,201.5C 345.67,207.472 345.17,213.472 345,219.5C 341.707,225.612 336.873,227.112 330.5,224C 329.299,223.097 328.465,221.931 328,220.5C 327.5,210.172 327.334,199.839 327.5,189.5C 320.417,187.992 317.25,183.659 318,176.5C 319.36,173.977 321.193,171.977 323.5,170.5 Z"/></g>
<g><path fill="#ea7523" d="M 401.5,195.5 C 394.88,211.705 387.88,227.705 380.5,243.5C 370.798,243.567 363.298,239.567 358,231.5C 350.282,217.236 352.449,204.736 364.5,194C 376.75,187.351 388.417,188.185 399.5,196.5C 400.183,196.137 400.85,195.804 401.5,195.5 Z"/></g>
<g><path fill="#050503" d="M 248.5,226.5 C 263.757,224.963 278.423,227.13 292.5,233C 295.939,235.139 299.106,237.639 302,240.5C 305.384,248.733 302.717,253.733 294,255.5C 288.701,251.768 282.867,248.935 276.5,247C 259.873,242.55 244.54,245.217 230.5,255C 220.75,254.691 217.583,249.857 221,240.5C 228.927,233.256 238.093,228.59 248.5,226.5 Z"/></g>
<g><path fill="#cadb55" d="M 181.5,245.5 C 197.809,250.43 204.809,261.43 202.5,278.5C 191.258,275.759 184.091,268.759 181,257.5C 180.393,253.463 180.56,249.463 181.5,245.5 Z"/></g>
<g><path fill="#cadb55" d="M 307.5,293.5 C 310.833,293.5 314.167,293.5 317.5,293.5C 314.272,311.046 303.606,320.046 285.5,320.5C 287.085,306.601 294.419,297.601 307.5,293.5 Z"/></g>
<g><path fill="#eb7523" d="M 214.5,366.5 C 204.415,352.004 195.082,337.004 186.5,321.5C 195.02,306.816 207.687,301.316 224.5,305C 238.803,309.959 246.136,319.959 246.5,335C 245.21,355.124 234.543,365.624 214.5,366.5 Z"/></g>
<g><path fill="#fbf06b" d="M 340.5,322.5 C 328.431,344.969 314.598,366.303 299,386.5C 292.575,394.457 284.409,399.457 274.5,401.5C 271.813,401.664 269.146,401.497 266.5,401C 263.689,397.706 264.022,394.706 267.5,392C 271.25,391.74 274.916,391.073 278.5,390C 288.706,382.426 297.206,373.259 304,362.5C 313.438,346.733 323.272,331.233 333.5,316C 338.835,314.833 341.169,317 340.5,322.5 Z"/></g>
</svg>
