<?xml version="1.0" standalone="no"?>
<!DOCTYPE svg PUBLIC "-//W3C//DTD SVG 20010904//EN"
 "http://www.w3.org/TR/2001/REC-SVG-20010904/DTD/svg10.dtd">
<svg version="1.0" xmlns="http://www.w3.org/2000/svg"
 width="514.000000pt" id="id" height="454.000000pt" viewBox="0 0 514.000000 454.000000"
 preserveAspectRatio="xMidYMid meet">

<g transform="translate(0.000000,454.000000) scale(0.100000,-0.100000)"
fill="#000000" stroke="none">
<path d="M2375 4164 c-207 -13 -486 -49 -660 -85 -468 -98 -839 -297 -951
-510 -27 -51 -29 -61 -29 -174 0 -117 1 -122 34 -190 43 -88 120 -166 179
-183 27 -8 46 -21 52 -35 5 -12 54 -134 109 -272 340 -855 666 -1495 996
-1955 147 -205 226 -275 362 -322 87 -29 257 -32 344 -5 71 22 162 76 217 130
112 109 358 480 544 822 206 378 377 751 604 1314 l122 303 60 30 c71 33 120
87 162 173 60 124 60 256 0 375 -88 175 -401 359 -780 459 -322 85 -608 120
-1020 125 -157 2 -312 2 -345 0z m685 -119 c555 -51 974 -176 1230 -366 131
-96 173 -167 173 -287 -1 -61 -6 -83 -31 -135 -34 -69 -93 -132 -133 -142 -19
-5 -34 0 -55 18 -241 198 -676 335 -1264 398 -166 17 -573 12 -765 -11 -479
-55 -895 -187 -1123 -355 -70 -50 -86 -57 -115 -46 -64 24 -131 128 -148 226
-22 130 28 228 170 334 264 195 731 330 1286 371 83 6 168 12 190 14 74 7 429
-4 585 -19z m-92 -620 c405 -43 738 -124 990 -241 85 -39 225 -124 237 -143 5
-8 -144 -390 -190 -486 -31 -67 -195 -450 -195 -457 0 -20 -265 -557 -346
-700 -159 -282 -359 -592 -462 -714 -102 -120 -208 -174 -343 -174 -76 0 -174
22 -232 51 -94 48 -240 240 -451 594 -43 72 -86 142 -96 156 -44 63 -262 481
-340 654 -13 28 -47 104 -77 170 -101 223 -273 636 -344 827 l-28 77 50 36
c150 111 417 208 764 279 44 8 116 23 160 32 255 52 625 68 903 39z"/>
<path d="M1825 2755 c-71 -41 -138 -84 -147 -96 -29 -34 -23 -85 12 -121 27
-27 36 -30 70 -25 l40 5 0 -85 c0 -118 21 -152 97 -153 33 0 46 5 62 26 19 24
21 40 21 175 l0 147 35 22 c72 44 85 101 36 151 -46 46 -76 39 -226 -46z"/>
<path d="M3209 2801 c-42 -42 -40 -84 7 -127 19 -19 40 -34 45 -34 5 0 9 -56
9 -127 0 -189 19 -233 100 -233 68 1 90 38 90 153 l0 85 38 -5 c54 -7 102 33
102 86 0 20 -7 46 -15 58 -8 11 -75 55 -148 97 -153 87 -182 93 -228 47z"/>
<path d="M2451 2254 c-83 -18 -184 -69 -221 -111 -54 -61 -29 -145 46 -159 29
-5 42 -1 77 23 141 100 395 103 525 6 18 -13 48 -27 67 -30 29 -5 39 -1 65 25
116 116 -109 264 -398 261 -53 -1 -126 -7 -161 -15z"/>
</g>
</svg>
