
<svg version="1.0" xmlns="http://www.w3.org/2000/svg"
 width="775.000000pt" id="id" height="955.000000pt" viewBox="0 0 775.000000 955.000000"
 preserveAspectRatio="xMidYMid meet">

<g transform="translate(0.000000,955.000000) scale(0.100000,-0.100000)"
fill="#000000" stroke="none">
<path d="M3770 9390 c-884 -40 -1768 -171 -2610 -386 -338 -86 -498 -130 -742
-204 -90 -27 -227 -251 -283 -462 -84 -323 -38 -621 140 -898 90 -140 279
-309 427 -381 l46 -22 4 -91 c6 -134 31 -184 241 -475 67 -92 120 -200 156
-316 40 -132 54 -214 86 -490 68 -589 119 -743 412 -1231 208 -345 298 -554
322 -744 6 -47 18 -145 26 -219 36 -300 137 -525 404 -901 357 -504 441 -659
546 -1015 127 -432 173 -560 255 -726 79 -158 134 -237 243 -348 244 -249 536
-328 737 -201 147 94 238 271 275 531 9 63 23 160 31 216 58 389 199 696 561
1218 471 681 611 939 693 1270 26 108 43 150 99 255 126 234 236 526 306 814
20 82 43 162 50 177 8 15 32 76 54 136 21 59 91 227 156 373 236 532 328 810
394 1200 48 285 54 349 57 694 l2 328 40 23 c189 107 377 316 485 536 92 189
131 356 131 569 0 127 -21 305 -45 368 -12 30 -58 48 -160 61 -47 6 -159 29
-249 51 -502 124 -1303 236 -2000 280 -221 14 -1059 20 -1290 10z m1075 -130
c865 -40 1519 -130 2383 -326 145 -32 136 -22 153 -182 19 -185 -21 -433 -97
-599 -38 -85 -42 -89 -115 -126 -30 -16 -91 -58 -134 -93 -80 -64 -200 -130
-265 -145 -106 -25 -132 -28 -203 -29 -99 0 -411 37 -415 50 -2 6 -23 10 -47
10 -24 0 -46 4 -49 9 -3 5 -23 11 -43 14 -42 6 -99 17 -278 54 -194 39 -460
73 -780 98 -304 24 -895 17 -1235 -15 -58 -6 -153 -14 -212 -19 -59 -5 -111
-12 -116 -15 -5 -3 -63 -12 -128 -21 -219 -28 -251 -33 -330 -48 -43 -9 -124
-23 -179 -32 -55 -10 -111 -21 -125 -25 -14 -5 -63 -16 -110 -25 -90 -17 -148
-31 -190 -46 -14 -5 -45 -13 -70 -18 -25 -5 -71 -16 -103 -25 -32 -9 -68 -16
-79 -16 -23 0 -74 -15 -125 -37 -17 -7 -41 -13 -52 -13 -12 0 -38 -7 -58 -15
-19 -8 -47 -15 -62 -15 -14 -1 -37 -7 -51 -15 -14 -8 -35 -14 -46 -15 -12 0
-35 -7 -50 -15 -16 -8 -37 -15 -46 -15 -9 0 -20 -4 -23 -10 -3 -5 -16 -10 -27
-10 -12 0 -47 -8 -77 -18 -58 -20 -134 -42 -211 -62 -25 -7 -54 -16 -65 -21
-106 -46 -411 -72 -593 -49 -113 14 -120 18 -188 110 -125 169 -196 430 -174
633 22 196 89 381 183 504 31 40 37 43 197 92 1011 310 2055 489 3150 540 256
12 843 12 1085 1z m-1677 -1427 c-10 -2 -26 -2 -35 0 -10 3 -2 5 17 5 19 0 27
-2 18 -5z m2255 0 c-7 -2 -21 -2 -30 0 -10 3 -4 5 12 5 17 0 24 -2 18 -5z
m182 -13 c-3 -5 -12 -10 -18 -10 -7 0 -6 4 3 10 19 12 23 12 15 0z m-640 -64
c543 -43 1072 -115 1565 -214 l185 -37 8 -60 c12 -90 1 -571 -17 -725 -53
-451 -168 -845 -392 -1335 -172 -380 -276 -660 -349 -945 -76 -298 -90 -334
-194 -519 -78 -139 -124 -251 -159 -386 -53 -201 -140 -397 -278 -626 l-66
-110 -40 36 c-61 56 -152 111 -221 135 -96 34 -240 38 -344 10 -367 -99 -550
-509 -378 -850 62 -123 191 -239 299 -270 25 -7 46 -16 46 -20 0 -4 -34 -78
-76 -165 -77 -161 -140 -334 -168 -461 -9 -40 -27 -157 -41 -260 -29 -215 -53
-320 -88 -390 -73 -144 -176 -216 -309 -216 -148 0 -261 54 -398 192 -206 206
-301 405 -455 955 -31 110 -74 249 -95 309 l-40 109 55 58 c36 38 70 88 97
145 39 81 42 93 46 193 5 128 -10 193 -68 292 -128 218 -395 322 -626 244 -41
-14 -76 -25 -78 -25 -8 0 -84 127 -124 206 -62 124 -108 268 -137 431 -106
592 -108 596 -375 1053 -132 226 -205 360 -198 364 2 1 36 12 76 23 l72 21 0
-62 c0 -117 39 -197 119 -244 41 -24 56 -27 136 -27 79 0 97 4 150 29 123 60
229 203 270 361 33 128 29 373 -8 521 l-12 49 -51 -2 c-28 -1 -74 -11 -103
-23 -28 -11 -56 -20 -61 -20 -6 0 -10 22 -10 48 0 121 -64 266 -160 362 -162
163 -379 192 -631 86 -13 -6 -18 4 -29 56 -17 88 -56 208 -94 292 -31 67 -97
170 -236 364 -32 46 -68 111 -79 144 -23 69 -28 166 -8 189 11 15 43 30 252
121 786 343 1676 553 2570 608 217 13 1017 4 1250 -14z m2020 -6 c-3 -5 -12
-10 -18 -10 -7 0 -6 4 3 10 19 12 23 12 15 0z m-5825 -454 c0 -2 -7 -7 -16
-10 -8 -3 -12 -2 -9 4 6 10 25 14 25 6z m1139 -1948 c24 -208 12 -325 -49
-455 -45 -97 -103 -159 -185 -197 -112 -53 -236 -20 -265 70 -19 56 -8 178 22
252 76 185 210 327 390 412 34 16 65 26 69 22 3 -4 11 -51 18 -104z m2134
-3065 c-7 -2 -19 -2 -25 0 -7 3 -2 5 12 5 14 0 19 -2 13 -5z"/>
<path d="M3128 7670 c-138 -22 -284 -105 -398 -227 -157 -169 -208 -387 -137
-592 83 -237 287 -369 537 -346 264 24 497 195 594 433 29 72 31 85 30 202 0
112 -3 132 -27 195 -49 125 -109 199 -215 266 -95 60 -256 89 -384 69z"/>
<path d="M5554 7190 c-249 -38 -449 -219 -510 -460 -22 -87 -15 -241 16 -327
60 -172 197 -305 382 -370 61 -22 90 -27 183 -27 179 0 284 43 411 169 129
127 184 255 184 425 0 136 -37 244 -124 359 -124 164 -350 261 -542 231z"/>
<path d="M4700 6096 c-107 -19 -202 -47 -302 -90 -92 -40 -122 -64 -116 -92 5
-26 23 -31 153 -43 135 -12 271 -46 371 -91 37 -16 77 -30 91 -30 29 0 52 42
34 63 -19 23 -209 94 -318 118 -57 13 -100 26 -95 30 14 14 160 47 258 59 119
14 220 7 370 -26 124 -27 147 -25 142 15 -4 30 -30 45 -133 73 -92 25 -347 33
-455 14z"/>
<path d="M3097 5925 c-162 -31 -287 -85 -415 -179 -61 -46 -74 -70 -50 -94 19
-19 33 -15 102 33 80 56 209 117 296 140 39 10 119 19 200 21 l135 5 -90 -45
c-158 -79 -233 -154 -193 -194 19 -19 40 -14 73 14 44 39 128 92 183 115 58
25 195 59 239 59 37 0 55 24 42 57 -6 16 -24 27 -61 37 -29 8 -71 20 -93 26
-67 19 -280 21 -368 5z"/>
<path d="M4026 5649 c-451 -52 -976 -315 -1343 -672 -243 -237 -356 -465 -355
-717 1 -226 89 -406 257 -525 79 -57 147 -87 260 -115 77 -19 107 -22 210 -17
200 9 301 43 568 191 156 87 187 100 293 126 66 17 130 30 144 30 33 0 156
-48 290 -112 189 -90 222 -100 350 -106 141 -5 206 10 335 76 116 60 248 188
314 305 217 385 142 848 -191 1179 -189 188 -439 311 -718 353 -101 16 -300
18 -414 4z m442 -94 c253 -49 461 -156 627 -324 85 -86 183 -224 211 -297 16
-43 16 -45 -2 -59 -32 -24 -135 -54 -229 -66 -108 -13 -292 5 -470 46 -318 75
-404 88 -560 88 -184 0 -276 -18 -525 -104 -465 -161 -574 -185 -769 -176
-121 6 -191 20 -191 39 0 20 83 122 170 209 270 269 720 524 1082 614 227 56
463 67 656 30z m-260 -1135 c18 -11 40 -37 48 -56 13 -32 13 -41 0 -81 -23
-66 -112 -153 -204 -200 -75 -37 -80 -38 -182 -38 -98 0 -109 2 -158 30 -122
67 -175 171 -122 238 29 37 78 43 167 22 83 -19 129 -51 141 -98 10 -39 35
-56 60 -41 23 15 27 57 8 96 -21 41 -21 42 17 78 73 68 162 88 225 50z"/>
</g>
</svg>
